<svg xmlns="http://www.w3.org/2000/svg" viewBox="0 0 960 420" role="img" aria-labelledby="title desc">
  <title id="title">Abstract cover diagram</title>
  <desc id="desc">Curved probability contours and three labeled update paths.</desc>
  <rect width="960" height="420" fill="#fffdfc"/>
  <g fill="none" stroke="#282828" stroke-opacity="0.11">
    <ellipse cx="310" cy="220" rx="210" ry="104"/>
    <ellipse cx="310" cy="220" rx="150" ry="74"/>
    <ellipse cx="310" cy="220" rx="88" ry="42"/>
    <ellipse cx="650" cy="205" rx="185" ry="96"/>
    <ellipse cx="650" cy="205" rx="126" ry="63"/>
    <ellipse cx="650" cy="205" rx="70" ry="34"/>
  </g>
  <path d="M235 250 C350 120 494 110 620 180" fill="none" stroke="#e11d47" stroke-width="8" stroke-linecap="round"/>
  <path d="M250 282 C390 300 520 286 702 225" fill="none" stroke="#168a75" stroke-width="8" stroke-linecap="round"/>
  <path d="M300 174 C420 212 520 238 673 164" fill="none" stroke="#c46a2a" stroke-width="8" stroke-linecap="round"/>
  <g font-family="Georgia, 'Times New Roman', serif" fill="#282828">
    <text x="88" y="88" font-size="34" font-weight="600">Sample Figure System</text>
    <text x="90" y="126" font-size="18" fill="#6e6d80">relative paths resolve from content/figs</text>
    <text x="214" y="328" font-size="18">Markdown image</text>
    <text x="448" y="88" font-size="18">front matter cover</text>
    <text x="666" y="302" font-size="18">wide shortcode</text>
  </g>
  <circle cx="235" cy="250" r="10" fill="#e11d47"/>
  <circle cx="702" cy="225" r="10" fill="#168a75"/>
  <circle cx="673" cy="164" r="10" fill="#c46a2a"/>
</svg>

