<svg xmlns="http://www.w3.org/2000/svg" viewBox="0 0 1100 360" role="img" aria-labelledby="title desc">
  <title id="title">Wide sample figure</title>
  <desc id="desc">A wide line chart with three differently colored curves.</desc>
  <rect width="1100" height="360" fill="#fffdfc"/>
  <g stroke="#282828" stroke-opacity="0.12">
    <line x1="90" y1="280" x2="1010" y2="280"/>
    <line x1="90" y1="220" x2="1010" y2="220"/>
    <line x1="90" y1="160" x2="1010" y2="160"/>
    <line x1="90" y1="100" x2="1010" y2="100"/>
  </g>
  <g fill="none" stroke-width="7" stroke-linecap="round" stroke-linejoin="round">
    <path d="M95 245 C210 226 285 206 375 190 C510 166 620 150 720 132 C835 111 910 97 1005 88" stroke="#e11d47"/>
    <path d="M95 262 C230 258 340 241 450 210 C585 171 700 163 805 143 C900 124 955 113 1005 105" stroke="#168a75"/>
    <path d="M95 220 C210 198 315 226 430 206 C555 184 642 222 748 185 C862 147 940 170 1005 150" stroke="#c46a2a"/>
  </g>
  <g font-family="Georgia, 'Times New Roman', serif" fill="#282828">
    <text x="90" y="58" font-size="28" font-weight="600">Wide Figure Example</text>
    <text x="90" y="322" font-size="15" fill="#6e6d80">training step</text>
    <text x="925" y="82" font-size="16" fill="#e11d47">SFT</text>
    <text x="925" y="121" font-size="16" fill="#168a75">RL</text>
    <text x="925" y="166" font-size="16" fill="#c46a2a">OPD</text>
  </g>
</svg>
